<?xml version="1.0" encoding="utf-8"?>
<svg viewBox="2.87 5.657 36.374 36.429" height="42.6717" xmlns="http://www.w3.org/2000/svg" style="max-height: 500px" width="41.92894736842105">
  <g transform="matrix(0.75513, 0, 0, 0.75513, -9.976891, 3.862941)" clip-path="url(#clip0_5_38)">
    <ellipse ry="23.837" rx="23.837" cy="26.619" cx="41.095" style="fill: rgb(14, 81, 209); paint-order: stroke; stroke: rgb(14, 81, 209); stroke-width: 0px;"/>
    <path fill="white" d="M 48.569 24 C 48.935 23.856 49.34 24.06 49.473 24.454 L 50.705 28.1 C 50.838 28.494 50.649 28.931 50.284 29.074 L 40.734 32.818 L 43.95 42.334 C 44.083 42.729 43.894 43.165 43.528 43.308 L 39.395 44.928 C 39.029 45.071 38.624 44.868 38.491 44.474 L 32.765 27.527 L 31.733 27.931 C 31.367 28.075 30.962 27.872 30.829 27.477 L 30.277 25.844 C 30.144 25.45 30.333 25.014 30.699 24.871 L 31.73 24.466 L 29.448 17.713 C 29.315 17.318 29.504 16.883 29.87 16.739 L 34.003 15.119 C 34.064 15.094 34.126 15.08 34.188 15.075 C 34.239 15.036 34.295 15.004 34.356 14.98 L 46.265 10.311 C 46.631 10.168 47.036 10.371 47.17 10.765 L 48.401 14.411 C 48.535 14.806 48.346 15.242 47.98 15.385 L 36.38 19.933 L 37.189 22.326 L 39.767 21.315 C 40.133 21.172 40.538 21.375 40.671 21.77 L 41.223 23.402 C 41.356 23.796 41.167 24.233 40.801 24.376 L 38.223 25.387 L 39.019 27.744 L 48.569 24 Z"/>
  </g>
</svg>