<svg viewBox="0.662 3.077 41.92894736842105 42.6717" height="42.6717" xmlns="http://www.w3.org/2000/svg" style="max-height: 500px" width="41.92894736842105">
  <defs/>
  <g transform="matrix(0.75513, 0, 0, 0.75513, -9.976891, 3.862941)" clip-path="url(#clip0_5_38)">
    <ellipse ry="23.837" rx="23.837" cy="26.619" cx="41.095" style="stroke-width: 1.32428px; fill: rgb(0, 81, 209); stroke: rgb(255, 255, 255)"/>
    <path fill="white" d="M 48.569 24 C 48.935 23.856 49.34 24.06 49.473 24.454 L 50.705 28.1 C 50.838 28.494 50.649 28.931 50.284 29.074 L 40.734 32.818 L 43.95 42.334 C 44.083 42.729 43.894 43.165 43.528 43.308 L 39.395 44.928 C 39.029 45.071 38.624 44.868 38.491 44.474 L 32.765 27.527 L 31.733 27.931 C 31.367 28.075 30.962 27.872 30.829 27.477 L 30.277 25.844 C 30.144 25.45 30.333 25.014 30.699 24.871 L 31.73 24.466 L 29.448 17.713 C 29.315 17.318 29.504 16.883 29.87 16.739 L 34.003 15.119 C 34.064 15.094 34.126 15.08 34.188 15.075 C 34.239 15.036 34.295 15.004 34.356 14.98 L 46.265 10.311 C 46.631 10.168 47.036 10.371 47.17 10.765 L 48.401 14.411 C 48.535 14.806 48.346 15.242 47.98 15.385 L 36.38 19.933 L 37.189 22.326 L 39.767 21.315 C 40.133 21.172 40.538 21.375 40.671 21.77 L 41.223 23.402 C 41.356 23.796 41.167 24.233 40.801 24.376 L 38.223 25.387 L 39.019 27.744 L 48.569 24 Z"/>
    <path style="fill: rgb(255, 255, 255); text-wrap-mode: nowrap" d="M 72.105 42.939 L 72.105 16.328 L 75.075 16.328 L 75.075 18.828 C 75.776 17.849 76.567 17.115 77.449 16.627 C 78.33 16.137 79.399 15.893 80.655 15.893 C 82.298 15.893 83.747 16.315 85.003 17.161 C 86.259 18.006 87.207 19.199 87.847 20.739 C 88.487 22.278 88.807 23.966 88.807 25.802 C 88.807 27.77 88.454 29.543 87.747 31.119 C 87.04 32.695 86.014 33.902 84.667 34.742 C 83.321 35.581 81.905 36.001 80.419 36.001 C 79.332 36.001 78.357 35.771 77.494 35.312 C 76.631 34.853 75.921 34.273 75.365 33.573 L 75.365 42.939 L 72.105 42.939 Z M 75.057 26.056 C 75.057 28.531 75.558 30.36 76.561 31.544 C 77.563 32.728 78.777 33.32 80.202 33.32 C 81.651 33.32 82.892 32.707 83.925 31.481 C 84.958 30.255 85.474 28.356 85.474 25.784 C 85.474 23.332 84.97 21.496 83.961 20.277 C 82.952 19.057 81.748 18.447 80.347 18.447 C 78.958 18.447 77.73 19.096 76.661 20.394 C 75.592 21.692 75.057 23.58 75.057 26.056 Z M 91.522 25.947 C 91.522 22.384 92.512 19.745 94.493 18.03 C 96.148 16.605 98.164 15.893 100.543 15.893 C 103.188 15.893 105.35 16.759 107.029 18.492 C 108.708 20.225 109.547 22.619 109.547 25.675 C 109.547 28.151 109.176 30.098 108.433 31.517 C 107.69 32.936 106.609 34.038 105.19 34.823 C 103.771 35.608 102.222 36.001 100.543 36.001 C 97.85 36.001 95.674 35.137 94.013 33.41 C 92.352 31.683 91.522 29.195 91.522 25.947 Z M 94.873 25.947 C 94.873 28.41 95.411 30.255 96.486 31.481 C 97.561 32.707 98.913 33.32 100.543 33.32 C 102.162 33.32 103.508 32.704 104.583 31.472 C 105.658 30.24 106.195 28.362 106.195 25.838 C 106.195 23.458 105.655 21.656 104.574 20.431 C 103.493 19.205 102.15 18.592 100.543 18.592 C 98.913 18.592 97.561 19.202 96.486 20.422 C 95.411 21.641 94.873 23.483 94.873 25.947 Z M 112.155 25.947 C 112.155 22.384 113.145 19.745 115.126 18.03 C 116.781 16.605 118.798 15.893 121.177 15.893 C 123.822 15.893 125.983 16.759 127.662 18.492 C 129.341 20.225 130.18 22.619 130.18 25.675 C 130.18 28.151 129.809 30.098 129.066 31.517 C 128.323 32.936 127.242 34.038 125.823 34.823 C 124.404 35.608 122.856 36.001 121.177 36.001 C 118.484 36.001 116.307 35.137 114.646 33.41 C 112.985 31.683 112.155 29.195 112.155 25.947 Z M 115.507 25.947 C 115.507 28.41 116.044 30.255 117.119 31.481 C 118.194 32.707 119.546 33.32 121.177 33.32 C 122.795 33.32 124.141 32.704 125.216 31.472 C 126.291 30.24 126.829 28.362 126.829 25.838 C 126.829 23.458 126.288 21.656 125.207 20.431 C 124.126 19.205 122.783 18.592 121.177 18.592 C 119.546 18.592 118.194 19.202 117.119 20.422 C 116.044 21.641 115.507 23.483 115.507 25.947 Z M 133.928 35.566 L 133.928 9.009 L 137.188 9.009 L 137.188 35.566 L 133.928 35.566 Z"/>
  </g>
</svg>